<?xml version="1.0" standalone="no"?>
<!DOCTYPE svg PUBLIC "-//W3C//DTD SVG 20010904//EN"
 "http://www.w3.org/TR/2001/REC-SVG-20010904/DTD/svg10.dtd">
<svg version="1.0" xmlns="http://www.w3.org/2000/svg"
 width="1280.000000pt" height="552.000000pt" viewBox="0 0 1280.000000 552.000000"
 preserveAspectRatio="xMidYMid meet">

<g transform="translate(0.000000,552.000000) scale(0.100000,-0.100000)"
fill="#000000" stroke="none">
<path d="M1442 4778 c-13 -18 -113 -408 -106 -419 3 -5 99 -9 213 -9 158 0
211 3 219 13 15 18 114 405 107 417 -10 16 -420 13 -433 -2z"/>
<path d="M1942 4778 c-13 -17 -112 -409 -106 -420 3 -4 99 -8 213 -8 156 0
211 3 219 13 6 7 31 93 57 192 25 99 49 187 52 195 3 8 28 -73 57 -180 28
-108 55 -201 59 -208 10 -15 422 -18 432 -2 7 12 -90 397 -106 416 -16 19
-429 21 -429 2 0 -9 -3 -9 -12 0 -17 17 -422 17 -436 0z"/>
<path d="M8530 4572 c0 -93 3 -104 26 -95 11 4 14 27 14 94 0 82 -1 89 -20 89
-18 0 -20 -7 -20 -88z"/>
<path d="M8580 4577 c0 -51 5 -88 12 -95 13 -13 173 -17 202 -6 13 5 16 23 16
95 l0 89 -115 0 -115 0 0 -83z"/>
<path d="M8820 4571 c0 -72 3 -90 16 -95 9 -3 53 -6 99 -6 46 0 90 3 99 6 13
5 16 23 16 95 l0 89 -115 0 -115 0 0 -89z"/>
<path d="M9260 4570 c0 -73 3 -90 15 -90 12 0 15 17 15 90 0 73 -3 90 -15 90
-12 0 -15 -17 -15 -90z"/>
<path d="M9312 4568 l3 -93 85 -3 c134 -5 130 -8 130 98 l0 90 -110 0 -111 0
3 -92z"/>
<path d="M9552 4568 l3 -93 105 0 105 0 3 93 3 92 -111 0 -111 0 3 -92z"/>
<path d="M7142 4563 l3 -88 90 -2 c131 -3 125 -7 125 93 l0 84 -110 0 -111 0
3 -87z"/>
<path d="M7380 4566 c0 -68 3 -85 16 -90 19 -7 172 -6 191 1 9 4 13 30 13 89
l0 84 -110 0 -110 0 0 -84z"/>
<path d="M7622 4564 l3 -87 38 -4 37 -4 0 91 0 90 -40 0 -41 0 3 -86z"/>
<path d="M7810 4559 c0 -68 3 -90 13 -87 8 3 13 33 15 91 2 73 0 87 -13 87
-12 0 -15 -16 -15 -91z"/>
<path d="M7862 4563 l3 -88 90 -2 c130 -3 125 -7 125 93 l0 84 -110 0 -111 0
3 -87z"/>
<path d="M8100 4567 c0 -68 3 -86 16 -91 20 -8 162 -8 192 0 29 8 30 61 2 96
-23 30 -98 64 -162 73 l-48 7 0 -85z"/>
<path d="M10121 4639 c-77 -15 -91 -31 -91 -99 0 -71 2 -72 130 -68 l85 3 3
88 3 87 -43 -1 c-24 -1 -63 -5 -87 -10z"/>
<path d="M10272 4563 l3 -88 105 0 105 0 3 88 3 87 -111 0 -111 0 3 -87z"/>
<path d="M10512 4563 l3 -88 103 -3 102 -3 0 91 0 90 -105 0 -106 0 3 -87z"/>
<path d="M10830 4562 l0 -88 68 0 67 1 3 88 3 87 -71 0 -70 0 0 -88z"/>
<path d="M10990 4565 c0 -100 -3 -98 130 -93 l85 3 3 81 3 81 -32 7 c-17 3
-67 6 -110 6 l-79 0 0 -85z"/>
<path d="M7046 4620 c-52 -26 -64 -38 -87 -81 -31 -62 -28 -66 54 -67 110 -2
107 -4 107 89 0 90 -5 93 -74 59z"/>
<path d="M11230 4556 c0 -85 1 -86 86 -86 64 0 68 10 29 77 -22 36 -83 83
-110 83 -3 0 -5 -33 -5 -74z"/>
<path d="M9983 4543 c-26 -47 -29 -73 -10 -73 29 1 38 17 35 66 l-3 49 -22
-42z"/>
<path d="M4930 4494 c0 -22 2 -25 15 -14 8 7 15 19 15 26 0 8 -7 14 -15 14
-10 0 -15 -10 -15 -26z"/>
<path d="M4970 4501 c0 -26 18 -30 120 -30 84 1 110 9 110 35 0 11 -24 14
-115 14 -107 0 -115 -1 -115 -19z"/>
<path d="M5210 4500 c0 -23 -3 -22 73 -25 54 -2 57 0 57 22 0 22 -4 23 -65 23
-58 0 -65 -2 -65 -20z"/>
<path d="M8341 4494 c0 -11 3 -14 6 -6 3 7 2 16 -1 19 -3 4 -6 -2 -5 -13z"/>
<path d="M4930 4311 l0 -141 -85 0 -85 0 0 -75 0 -76 98 3 97 3 0 209 c0 159
-3 210 -12 214 -10 3 -13 -29 -13 -137z"/>
<path d="M4972 4238 l3 -213 110 0 110 0 0 210 0 210 -113 3 -112 3 2 -213z"/>
<path d="M5214 4437 c-2 -7 -3 -102 -2 -212 l3 -200 110 0 110 0 3 73 3 72
-51 0 -50 0 0 140 0 140 -60 0 c-40 0 -62 -4 -66 -13z"/>
<path d="M6930 4235 l0 -215 95 0 95 0 0 215 0 215 -95 0 -95 0 0 -215z"/>
<path d="M7140 4235 l0 -215 110 0 110 0 0 215 0 215 -110 0 -110 0 0 -215z"/>
<path d="M7380 4235 l0 -215 49 0 50 0 3 48 3 47 58 3 57 3 0 164 0 165 -110
0 -110 0 0 -215z"/>
<path d="M7620 4285 l0 -165 40 0 40 0 0 165 0 165 -40 0 -40 0 0 -165z"/>
<path d="M7810 4235 c0 -184 2 -215 15 -215 13 0 15 31 15 215 0 184 -2 215
-15 215 -13 0 -15 -31 -15 -215z"/>
<path d="M7860 4235 l0 -215 110 0 110 0 0 215 0 215 -110 0 -110 0 0 -215z"/>
<path d="M8105 4438 c-3 -8 -4 -103 -3 -213 l3 -200 110 0 110 0 0 210 0 210
-108 3 c-81 2 -109 0 -112 -10z"/>
<path d="M8347 4443 c-11 -11 -8 -411 3 -418 7 -4 10 68 10 209 0 119 -1 216
-3 216 -2 0 -7 -3 -10 -7z"/>
<path d="M8530 4235 c0 -201 1 -216 18 -213 16 3 17 21 17 213 0 192 -1 210
-17 213 -17 3 -18 -12 -18 -213z"/>
<path d="M8587 4443 c-10 -9 -8 -396 1 -411 6 -9 36 -12 113 -10 l104 3 3 213
2 212 -108 0 c-60 0 -112 -3 -115 -7z"/>
<path d="M8824 4437 c-2 -7 -3 -102 -2 -212 l3 -200 110 0 110 0 3 213 2 212
-110 0 c-81 0 -112 -3 -116 -13z"/>
<path d="M9260 4234 c0 -168 3 -215 13 -212 9 4 13 58 15 216 2 184 0 212 -13
212 -13 0 -15 -29 -15 -216z"/>
<path d="M9310 4235 l0 -216 108 3 107 3 3 213 2 212 -110 0 -110 0 0 -215z"/>
<path d="M9550 4235 l0 -215 110 0 110 0 0 215 0 215 -110 0 -110 0 0 -215z"/>
<path d="M9950 4235 l0 -215 30 0 30 0 0 215 0 215 -30 0 -30 0 0 -215z"/>
<path d="M10030 4235 l0 -215 110 0 110 0 0 215 0 215 -110 0 -110 0 0 -215z"/>
<path d="M10270 4235 l0 -215 110 0 110 0 0 215 0 215 -110 0 -110 0 0 -215z"/>
<path d="M10510 4285 l0 -165 105 0 105 0 0 165 0 165 -105 0 -105 0 0 -165z"/>
<path d="M10830 4235 l0 -215 70 0 70 0 0 215 0 215 -70 0 -70 0 0 -215z"/>
<path d="M10992 4238 l3 -213 108 -3 107 -3 0 216 0 215 -110 0 -110 0 2 -212z"/>
<path d="M11232 4238 l3 -213 73 -3 72 -3 0 216 0 215 -75 0 -75 0 2 -212z"/>
<path d="M1298 4273 c-20 -24 -114 -393 -105 -416 6 -15 25 -17 205 -17 143 0
203 3 215 13 20 14 123 398 113 422 -4 13 -39 15 -209 15 -182 0 -206 -2 -219
-17z"/>
<path d="M1798 4273 c-15 -18 -108 -362 -108 -400 0 -12 7 -24 16 -27 32 -12
389 -7 407 7 20 14 123 398 113 422 -4 13 -39 15 -209 15 -182 0 -206 -2 -219
-17z"/>
<path d="M2534 4277 c-5 -13 76 -343 97 -399 6 -14 20 -29 32 -32 12 -3 106
-6 208 -6 142 0 189 3 197 13 9 10 -1 63 -38 205 -28 106 -50 194 -50 196 0 3
-7 12 -16 20 -13 14 -47 16 -220 16 -162 0 -206 -3 -210 -13z"/>
<path d="M5452 4098 l3 -73 38 -3 37 -3 0 75 0 76 -40 0 -41 0 3 -72z"/>
<path d="M4760 3880 l0 -120 100 0 101 0 -3 118 -3 117 -97 3 -98 3 0 -121z"/>
<path d="M4977 3993 c-4 -3 -7 -57 -7 -120 l0 -113 115 0 115 0 0 104 c0 57
-3 111 -6 120 -5 13 -24 16 -108 16 -57 0 -106 -3 -109 -7z"/>
<path d="M5217 3994 c-4 -4 -7 -58 -7 -121 l0 -113 115 0 116 0 -3 118 -3 117
-106 3 c-58 1 -108 -1 -112 -4z"/>
<path d="M5457 3993 c-4 -3 -7 -57 -7 -120 l0 -113 40 0 40 0 0 120 0 120 -33
0 c-19 0 -37 -3 -40 -7z"/>
<path d="M6930 3785 l0 -215 95 0 95 0 0 215 0 215 -95 0 -95 0 0 -215z"/>
<path d="M7140 3785 l0 -215 110 0 110 0 0 215 0 215 -110 0 -110 0 0 -215z"/>
<path d="M7380 3785 l0 -215 110 0 110 0 0 110 0 110 -60 0 -60 0 0 105 0 105
-50 0 -50 0 0 -215z"/>
<path d="M7810 3945 c0 -42 3 -55 15 -55 12 0 15 13 15 55 0 42 -3 55 -15 55
-12 0 -15 -13 -15 -55z"/>
<path d="M7867 3993 c-4 -3 -7 -28 -7 -55 l0 -48 110 0 110 0 0 55 0 55 -103
0 c-57 0 -107 -3 -110 -7z"/>
<path d="M8107 3994 c-4 -4 -7 -29 -7 -56 l0 -48 116 0 115 0 -3 53 -3 52
-106 3 c-58 1 -108 -1 -112 -4z"/>
<path d="M8347 3993 c-11 -10 -8 -103 3 -103 6 0 10 25 10 55 0 56 -1 60 -13
48z"/>
<path d="M8530 3785 c0 -201 1 -216 18 -213 16 3 17 21 17 213 0 192 -1 210
-17 213 -17 3 -18 -12 -18 -213z"/>
<path d="M8586 3985 c-8 -21 -8 -378 0 -399 5 -13 25 -16 115 -16 l109 0 -2
213 -3 212 -106 3 c-91 2 -108 0 -113 -13z"/>
<path d="M8825 3988 c-3 -8 -4 -103 -3 -213 l3 -200 113 -3 112 -3 -2 213 -3
213 -108 3 c-81 2 -109 0 -112 -10z"/>
<path d="M9260 3816 c0 -160 2 -186 15 -186 13 0 15 24 13 182 -2 134 -6 182
-15 186 -10 3 -13 -38 -13 -182z"/>
<path d="M9310 3815 l0 -185 75 0 75 0 0 -30 c0 -28 3 -30 35 -30 l35 0 -2
213 -3 212 -107 3 -108 3 0 -186z"/>
<path d="M9550 3785 l0 -215 110 0 110 0 0 215 0 215 -110 0 -110 0 0 -215z"/>
<path d="M9950 3786 l0 -216 30 0 30 0 -2 213 -3 212 -27 3 -28 3 0 -215z"/>
<path d="M10030 3785 l0 -215 110 0 110 0 0 215 0 215 -110 0 -110 0 0 -215z"/>
<path d="M10270 3785 l0 -215 110 0 110 0 0 215 0 215 -110 0 -110 0 0 -215z"/>
<path d="M10830 3945 l0 -55 70 0 70 0 0 55 0 55 -70 0 -70 0 0 -55z"/>
<path d="M10997 3993 c-4 -3 -7 -28 -7 -55 l0 -48 110 0 110 0 0 55 0 55 -103
0 c-57 0 -107 -3 -110 -7z"/>
<path d="M11237 3993 c-4 -3 -7 -28 -7 -55 l0 -48 75 0 75 0 0 55 0 55 -68 0
c-38 0 -72 -3 -75 -7z"/>
<path d="M7620 3680 l0 -110 110 0 110 0 0 110 0 110 -110 0 -110 0 0 -110z"/>
<path d="M7860 3680 l0 -110 110 0 110 0 0 110 0 110 -110 0 -110 0 0 -110z"/>
<path d="M8100 3680 l0 -111 113 3 112 3 3 51 c3 44 -1 56 -25 84 -32 38 -88
65 -155 75 l-48 6 0 -111z"/>
<path d="M10510 3680 l0 -110 110 0 110 0 0 110 0 110 -110 0 -110 0 0 -110z"/>
<path d="M10750 3680 l0 -110 110 0 110 0 0 110 0 110 -110 0 -110 0 0 -110z"/>
<path d="M10990 3680 l0 -110 110 0 110 0 0 104 0 103 -37 7 c-21 3 -71 6
-110 6 l-73 0 0 -110z"/>
<path d="M1171 3766 c-20 -24 -114 -407 -103 -418 16 -16 413 -12 428 4 14 16
113 398 107 416 -7 19 -416 17 -432 -2z"/>
<path d="M1667 3758 c-22 -36 -110 -399 -99 -410 5 -5 100 -9 212 -9 157 -1
205 2 215 13 15 15 114 397 108 416 -4 9 -55 12 -214 12 -206 0 -209 0 -222
-22z"/>
<path d="M2663 3765 c-7 -19 85 -388 102 -412 10 -14 39 -16 211 -15 109 0
205 1 212 1 6 1 12 9 12 18 0 33 -91 378 -106 401 -14 22 -18 22 -220 22 -175
0 -205 -2 -211 -15z"/>
<path d="M3570 3772 c-6 -2 -10 -46 -10 -103 l0 -99 95 0 95 0 0 100 c0 97 -1
100 -22 101 -13 0 -51 1 -86 2 -34 1 -67 1 -72 -1z"/>
<path d="M3780 3772 c-6 -2 -10 -45 -10 -103 l0 -99 100 0 101 0 -3 102 -3
101 -87 1 c-48 1 -92 0 -98 -2z"/>
<path d="M4206 3773 c-3 -3 -6 -51 -6 -105 0 -80 3 -98 15 -98 12 0 15 18 15
99 0 91 -7 121 -24 104z"/>
<path d="M4257 3774 c-4 -4 -7 -52 -7 -106 l0 -98 110 0 110 0 0 100 0 100
-89 0 c-49 0 -96 2 -103 5 -8 3 -17 2 -21 -1z"/>
<path d="M4494 3771 c-2 -2 -4 -49 -4 -103 l0 -98 70 0 71 0 -3 102 -3 101
-63 1 c-35 1 -66 -1 -68 -3z"/>
<path d="M5939 3769 c-6 -3 -8 -48 -7 -100 l3 -94 98 -3 97 -3 0 100 0 100
-91 3 c-50 2 -95 0 -100 -3z"/>
<path d="M6224 3771 c-2 -2 -4 -49 -4 -103 l0 -98 90 0 90 0 0 99 0 100 -86 3
c-47 2 -88 1 -90 -1z"/>
<path d="M6424 3771 c-2 -2 -4 -49 -4 -103 l0 -98 110 0 110 0 0 95 c0 90 -1
95 -22 100 -30 6 -189 11 -194 6z"/>
<path d="M5830 3754 c-61 -26 -99 -77 -113 -151 l-6 -33 104 0 105 0 0 100 0
100 -27 0 c-16 -1 -44 -8 -63 -16z"/>
<path d="M11230 3670 l0 -100 75 0 75 0 -6 28 c-12 48 -34 96 -57 120 -20 22
-68 52 -82 52 -3 0 -5 -45 -5 -100z"/>
<path d="M6660 3660 l0 -90 55 0 55 0 -7 33 c-11 59 -48 118 -85 138 -17 9
-18 3 -18 -81z"/>
<path d="M4930 3619 c0 -66 24 -62 28 4 2 37 0 47 -12 47 -12 0 -16 -12 -16
-51z"/>
<path d="M4970 3620 l0 -51 113 3 112 3 3 48 3 47 -115 0 -116 0 0 -50z"/>
<path d="M5210 3620 l0 -50 65 0 65 0 0 50 0 50 -65 0 -65 0 0 -50z"/>
<path d="M8340 3602 c0 -18 5 -32 10 -32 6 0 8 11 4 28 -10 39 -14 40 -14 4z"/>
<path d="M3560 3325 l0 -215 95 0 95 0 0 215 0 215 -95 0 -95 0 0 -215z"/>
<path d="M3772 3328 l3 -213 98 -3 97 -3 0 216 0 215 -100 0 -100 0 2 -212z"/>
<path d="M4200 3325 c0 -184 2 -215 15 -215 13 0 15 31 15 215 0 184 -2 215
-15 215 -13 0 -15 -31 -15 -215z"/>
<path d="M4252 3328 l3 -213 108 -3 107 -3 0 216 0 215 -110 0 -110 0 2 -212z"/>
<path d="M4492 3328 l3 -213 68 -3 67 -3 0 216 0 215 -70 0 -70 0 2 -212z"/>
<path d="M4930 3325 c0 -169 3 -216 13 -212 9 3 12 54 12 212 0 158 -3 209
-12 213 -10 3 -13 -44 -13 -213z"/>
<path d="M4972 3328 l3 -213 110 0 110 0 0 210 0 210 -113 3 -112 3 2 -213z"/>
<path d="M5214 3527 c-2 -7 -3 -102 -2 -212 l3 -200 63 -3 62 -3 0 216 0 215
-60 0 c-40 0 -62 -4 -66 -13z"/>
<path d="M5710 3325 l0 -216 103 3 102 3 3 213 2 212 -105 0 -105 0 0 -215z"/>
<path d="M5934 3527 c-2 -7 -3 -102 -2 -212 l3 -200 98 -3 97 -3 0 216 0 215
-95 0 c-68 0 -97 -4 -101 -13z"/>
<path d="M6220 3445 l0 -95 65 0 65 0 0 -121 c0 -119 0 -120 23 -117 22 3 22
4 25 216 l2 212 -90 0 -90 0 0 -95z"/>
<path d="M6420 3325 l0 -216 108 3 107 3 3 213 2 212 -110 0 -110 0 0 -215z"/>
<path d="M6660 3325 l0 -215 55 0 55 0 0 215 0 215 -55 0 -55 0 0 -215z"/>
<path d="M6933 3473 c8 -77 48 -167 87 -195 14 -10 42 -24 63 -33 l37 -15 0
155 0 155 -96 0 -97 0 6 -67z"/>
<path d="M7140 3385 l0 -155 110 0 110 0 0 155 0 155 -110 0 -110 0 0 -155z"/>
<path d="M7380 3385 l0 -155 110 0 110 0 0 155 0 155 -110 0 -110 0 0 -155z"/>
<path d="M7620 3385 l0 -154 93 -3 92 -3 3 -57 c2 -43 7 -58 17 -58 13 0 15
34 15 215 l0 215 -110 0 -110 0 0 -155z"/>
<path d="M7862 3328 l3 -213 108 -3 107 -3 0 216 0 215 -110 0 -110 0 2 -212z"/>
<path d="M8102 3328 l3 -213 110 0 110 0 3 213 2 212 -115 0 -115 0 2 -212z"/>
<path d="M8340 3331 c0 -129 4 -212 10 -216 7 -4 10 68 10 209 0 137 -4 216
-10 216 -6 0 -10 -76 -10 -209z"/>
<path d="M8532 3378 c3 -124 8 -171 20 -198 16 -34 17 -28 15 160 -2 180 -3
195 -20 198 -18 4 -19 -5 -15 -160z"/>
<path d="M8587 3533 c-10 -9 -8 -396 1 -411 6 -9 36 -12 113 -10 l104 3 3 213
2 212 -108 0 c-60 0 -112 -3 -115 -7z"/>
<path d="M8824 3527 c-2 -7 -3 -102 -2 -212 l3 -200 110 0 110 0 3 213 2 212
-110 0 c-81 0 -112 -3 -116 -13z"/>
<path d="M9460 3324 l0 -215 33 3 32 3 3 213 2 212 -35 0 -35 0 0 -216z"/>
<path d="M9550 3325 l0 -216 108 3 107 3 3 213 2 212 -110 0 -110 0 0 -215z"/>
<path d="M9953 3474 c4 -37 17 -88 31 -117 l24 -52 1 118 1 117 -31 0 -32 0 6
-66z"/>
<path d="M10030 3410 l0 -131 53 -24 c36 -17 70 -25 110 -25 l57 0 0 155 0
155 -110 0 -110 0 0 -130z"/>
<path d="M10270 3385 l0 -155 110 0 110 0 0 155 0 155 -110 0 -110 0 0 -155z"/>
<path d="M10510 3385 l0 -155 110 0 110 0 0 155 0 155 -110 0 -110 0 0 -155z"/>
<path d="M10750 3386 l0 -155 38 -3 37 -3 3 -57 3 -58 69 0 70 0 0 215 0 215
-110 0 -110 0 0 -154z"/>
<path d="M10992 3328 l3 -213 108 -3 107 -3 0 216 0 215 -110 0 -110 0 2 -212z"/>
<path d="M11232 3328 l3 -213 73 -3 72 -3 0 216 0 215 -75 0 -75 0 2 -212z"/>
<path d="M9070 3320 l0 -211 108 3 107 3 3 208 2 207 -110 0 -110 0 0 -210z"/>
<path d="M9310 3320 c0 -203 1 -210 20 -210 19 0 20 7 20 210 0 203 -1 210
-20 210 -19 0 -20 -7 -20 -210z"/>
<path d="M1022 3268 c-14 -18 -114 -407 -107 -418 10 -16 420 -13 433 3 15 18
114 406 107 417 -10 16 -420 13 -433 -2z"/>
<path d="M1522 3268 c-14 -18 -114 -407 -107 -418 10 -16 420 -13 433 3 15 18
114 405 107 417 -10 16 -420 13 -433 -2z"/>
<path d="M2016 3258 c-15 -23 -106 -368 -106 -401 0 -16 18 -17 215 -17 214 0
216 0 225 23 15 34 100 369 100 395 l0 22 -210 0 c-206 0 -210 0 -224 -22z"/>
<path d="M2807 3268 c-4 -14 89 -382 104 -410 9 -16 30 -18 220 -18 168 0 211
3 215 14 6 17 -91 392 -107 412 -16 19 -425 21 -432 2z"/>
<path d="M6978 3113 c29 -2 74 -2 100 0 26 2 2 3 -53 3 -55 0 -76 -1 -47 -3z"/>
<path d="M7193 3113 c31 -2 83 -2 115 0 31 2 5 3 -58 3 -63 0 -89 -1 -57 -3z"/>
<path d="M7403 3113 c15 -2 39 -2 55 0 15 2 2 4 -28 4 -30 0 -43 -2 -27 -4z"/>
<path d="M9963 3113 c9 -2 23 -2 30 0 6 3 -1 5 -18 5 -16 0 -22 -2 -12 -5z"/>
<path d="M10083 3113 c31 -2 83 -2 115 0 31 2 5 3 -58 3 -63 0 -89 -1 -57 -3z"/>
<path d="M10323 3113 c31 -2 83 -2 115 0 31 2 5 3 -58 3 -63 0 -89 -1 -57 -3z"/>
<path d="M3560 2875 l0 -215 95 0 95 0 0 215 0 215 -95 0 -95 0 0 -215z"/>
<path d="M3770 2875 l0 -215 110 0 110 0 0 40 c0 22 -4 40 -10 40 -6 0 -10 65
-10 175 l0 175 -100 0 -100 0 0 -215z"/>
<path d="M4200 2960 c0 -109 2 -130 15 -130 13 0 15 21 15 130 0 109 -2 130
-15 130 -13 0 -15 -21 -15 -130z"/>
<path d="M4257 3083 c-4 -3 -7 -62 -7 -130 l0 -123 60 0 60 0 0 -85 0 -85 50
0 50 0 0 215 0 215 -103 0 c-57 0 -107 -3 -110 -7z"/>
<path d="M4497 3083 c-4 -3 -7 -100 -7 -215 l0 -208 70 0 70 0 0 215 0 215
-63 0 c-35 0 -67 -3 -70 -7z"/>
<path d="M4931 2876 c3 -140 7 -215 14 -213 6 2 10 80 10 212 0 165 -3 209
-13 213 -11 3 -13 -35 -11 -212z"/>
<path d="M4977 3083 c-4 -3 -7 -100 -7 -215 l0 -209 113 3 112 3 2 198 c1 109
-1 205 -4 213 -4 11 -28 14 -107 14 -57 0 -106 -3 -109 -7z"/>
<path d="M5214 3077 c-2 -7 -3 -102 -2 -212 l3 -200 63 -3 62 -3 0 216 0 215
-60 0 c-40 0 -62 -4 -66 -13z"/>
<path d="M5710 2875 l0 -215 105 0 105 0 -2 213 -3 212 -102 3 -103 3 0 -216z"/>
<path d="M5934 3077 c-2 -7 -3 -102 -2 -212 l3 -200 113 -3 112 -3 0 41 c0 29
-4 40 -15 40 -13 0 -15 26 -15 175 l0 175 -95 0 c-68 0 -97 -4 -101 -13z"/>
<path d="M6350 2875 l0 -215 25 0 25 0 0 215 0 215 -25 0 -25 0 0 -215z"/>
<path d="M6420 2875 l0 -215 110 0 110 0 0 215 0 215 -110 0 -110 0 0 -215z"/>
<path d="M6660 2875 l0 -215 55 0 55 0 0 215 0 215 -55 0 -55 0 0 -215z"/>
<path d="M6930 2875 l0 -215 95 0 95 0 0 215 0 215 -95 0 -95 0 0 -215z"/>
<path d="M7140 2875 l0 -215 110 0 110 0 0 215 0 215 -110 0 -110 0 0 -215z"/>
<path d="M7380 2875 l0 -215 50 0 50 0 0 215 0 215 -50 0 -50 0 0 -215z"/>
<path d="M7808 2988 l-3 -103 -92 -3 -93 -3 0 -109 0 -110 110 0 110 0 0 215
c0 182 -2 215 -15 215 -11 0 -15 -20 -17 -102z"/>
<path d="M7860 2875 l0 -215 110 0 110 0 0 215 0 215 -110 0 -110 0 0 -215z"/>
<path d="M8105 3078 c-3 -8 -4 -103 -3 -213 l3 -200 110 0 110 0 0 210 0 210
-108 3 c-81 2 -109 0 -112 -10z"/>
<path d="M8347 3083 c-11 -11 -8 -411 3 -418 7 -4 10 68 10 209 0 119 -1 216
-3 216 -2 0 -7 -3 -10 -7z"/>
<path d="M8630 3086 c0 -12 75 -36 127 -43 54 -6 55 -5 51 18 -3 23 -7 24 -90
27 -49 1 -88 0 -88 -2z"/>
<path d="M8827 3084 c-4 -4 -7 -16 -7 -26 0 -16 10 -18 116 -18 114 0 115 0
112 23 -3 21 -8 22 -109 25 -58 1 -108 -1 -112 -4z"/>
<path d="M9070 3065 l0 -25 110 0 110 0 0 25 0 25 -110 0 -110 0 0 -25z"/>
<path d="M9310 3065 c0 -18 5 -25 20 -25 15 0 20 7 20 25 0 18 -5 25 -20 25
-15 0 -20 -7 -20 -25z"/>
<path d="M9460 2966 l0 -126 -75 0 -75 0 0 -90 0 -90 110 0 110 0 -2 213 -3
212 -32 3 -33 3 0 -125z"/>
<path d="M9550 2875 l0 -215 110 0 110 0 0 215 0 215 -110 0 -110 0 0 -215z"/>
<path d="M9950 2875 l0 -215 30 0 30 0 0 215 0 215 -30 0 -30 0 0 -215z"/>
<path d="M10030 2875 l0 -215 110 0 110 0 0 215 0 215 -110 0 -110 0 0 -215z"/>
<path d="M10270 2875 l0 -215 110 0 110 0 0 215 0 215 -110 0 -110 0 0 -215z"/>
<path d="M10828 2988 l-3 -103 -37 -3 -38 -3 0 -110 0 -109 110 0 110 0 0 215
0 215 -70 0 -69 0 -3 -102z"/>
<path d="M10997 3083 c-4 -3 -7 -100 -7 -215 l0 -208 110 0 110 0 0 215 0 215
-103 0 c-57 0 -107 -3 -110 -7z"/>
<path d="M11237 3083 c-4 -3 -7 -100 -7 -215 l0 -208 75 0 75 0 0 215 0 215
-68 0 c-38 0 -72 -3 -75 -7z"/>
<path d="M7594 2770 c0 -63 1 -89 3 -57 2 31 2 83 0 115 -2 31 -3 5 -3 -58z"/>
<path d="M10610 2770 l0 -110 60 0 60 0 0 110 0 110 -60 0 -60 0 0 -110z"/>
<path d="M8600 2750 l0 -90 105 0 105 0 0 90 0 90 -105 0 -105 0 0 -90z"/>
<path d="M8824 2827 c-3 -8 -4 -47 -2 -88 l3 -74 113 -3 112 -3 0 91 0 90
-110 0 c-83 0 -112 -3 -116 -13z"/>
<path d="M9070 2750 l0 -90 110 0 110 0 0 90 0 90 -110 0 -110 0 0 -90z"/>
<path d="M913 2772 c-17 -11 -25 -36 -77 -234 -25 -97 -43 -184 -40 -192 9
-24 405 -24 428 0 9 8 16 17 16 20 0 2 22 90 50 196 37 142 47 195 38 205 -8
10 -56 13 -207 13 -108 0 -201 -4 -208 -8z"/>
<path d="M1406 2764 c-9 -8 -16 -17 -16 -18 0 -2 -23 -90 -50 -196 -39 -148
-48 -196 -39 -206 18 -22 401 -20 423 2 9 8 16 17 16 19 0 1 22 90 50 196 36
143 47 196 38 206 -8 10 -57 13 -209 13 -166 0 -200 -2 -213 -16z"/>
<path d="M2933 2763 c-9 -23 85 -392 105 -415 13 -16 37 -18 219 -18 170 0
205 2 209 15 10 24 -93 408 -113 422 -12 10 -72 13 -215 13 -180 0 -199 -2
-205 -17z"/>
<path d="M4010 2700 l0 -40 110 0 110 0 0 40 0 40 -110 0 -110 0 0 -40z"/>
<path d="M4250 2700 c0 -29 4 -40 15 -40 11 0 15 11 15 40 0 29 -4 40 -15 40
-11 0 -15 -11 -15 -40z"/>
<path d="M6180 2700 l0 -40 40 0 40 0 0 40 0 40 -40 0 -40 0 0 -40z"/>
<path d="M3563 2624 c-12 -32 13 -172 38 -209 25 -35 74 -68 122 -79 l28 -7
-3 153 -3 153 -88 3 c-75 3 -88 1 -94 -14z"/>
<path d="M3777 2633 c-4 -3 -7 -73 -7 -155 l0 -148 110 0 110 0 0 149 c0 127
-2 150 -16 155 -21 8 -189 8 -197 -1z"/>
<path d="M4017 2633 c-4 -3 -7 -73 -7 -155 l0 -148 110 0 110 0 0 149 c0 127
-2 150 -16 155 -21 8 -189 8 -197 -1z"/>
<path d="M4257 2633 c-4 -3 -7 -73 -7 -155 0 -125 2 -148 15 -148 13 0 15 24
15 155 0 142 -4 168 -23 148z"/>
<path d="M4370 2486 l0 -156 50 0 51 0 -3 153 -3 152 -47 3 -48 3 0 -155z"/>
<path d="M4497 2633 c-4 -3 -7 -73 -7 -155 l0 -148 70 0 70 0 0 155 0 155 -63
0 c-35 0 -67 -3 -70 -7z"/>
<path d="M4977 2633 c-4 -3 -7 -75 -7 -160 l0 -153 115 0 115 0 0 148 c0 102
-4 152 -12 160 -13 13 -199 17 -211 5z"/>
<path d="M5223 2633 c-10 -3 -13 -45 -13 -159 l0 -154 65 0 65 0 0 160 0 160
-52 -1 c-29 0 -59 -3 -65 -6z"/>
<path d="M5713 2559 c9 -135 62 -205 170 -224 l37 -7 0 150 c0 132 -2 151 -17
156 -9 4 -57 6 -106 5 l-90 -2 6 -78z"/>
<path d="M5942 2627 c-6 -7 -10 -67 -9 -152 l2 -140 113 -3 112 -3 0 150 c0
126 -2 150 -16 155 -31 12 -191 7 -202 -7z"/>
<path d="M6187 2633 c-4 -3 -7 -73 -7 -155 l0 -148 40 0 40 0 0 155 0 155 -33
0 c-19 0 -37 -3 -40 -7z"/>
<path d="M6350 2486 l0 -156 25 0 26 0 -3 153 c-3 149 -3 152 -25 155 l-23 3
0 -155z"/>
<path d="M6427 2633 c-4 -3 -7 -73 -7 -155 l0 -148 79 0 c43 0 93 3 110 6 l31
7 0 142 c0 121 -2 144 -16 149 -21 8 -189 8 -197 -1z"/>
<path d="M6667 2633 c-12 -12 -8 -273 4 -273 22 0 69 63 84 113 8 28 15 77 15
109 l0 58 -48 0 c-27 0 -52 -3 -55 -7z"/>
<path d="M6933 2566 c8 -107 52 -181 126 -212 62 -26 61 -28 61 130 0 122 -2
145 -16 150 -9 3 -52 6 -96 6 l-81 0 6 -74z"/>
<path d="M7147 2633 c-4 -3 -7 -73 -7 -155 l0 -148 110 0 110 0 0 149 c0 127
-2 150 -16 155 -21 8 -189 8 -197 -1z"/>
<path d="M7387 2633 c-4 -3 -7 -73 -7 -155 l0 -148 50 0 50 0 0 155 0 155 -43
0 c-24 0 -47 -3 -50 -7z"/>
<path d="M7633 2633 c-10 -3 -13 -44 -13 -154 l0 -149 110 0 110 0 0 149 c0
127 -2 150 -16 155 -19 7 -173 7 -191 -1z"/>
<path d="M7873 2633 c-10 -3 -13 -44 -13 -154 l0 -149 110 0 110 0 0 149 c0
127 -2 150 -16 155 -19 7 -173 7 -191 -1z"/>
<path d="M8113 2633 c-10 -3 -13 -44 -13 -155 l0 -151 51 7 c65 9 119 36 153
76 24 29 26 39 26 125 0 88 -1 93 -22 99 -27 7 -178 7 -195 -1z"/>
<path d="M8600 2485 l0 -155 105 0 106 0 -3 153 -3 152 -102 3 -103 3 0 -156z"/>
<path d="M8832 2628 c-8 -8 -12 -55 -12 -155 l0 -143 115 0 116 0 -3 153 -3
152 -100 3 c-70 2 -104 -1 -113 -10z"/>
<path d="M9077 2634 c-4 -4 -7 -74 -7 -156 l0 -148 110 0 111 0 -3 153 -3 152
-101 3 c-55 1 -103 0 -107 -4z"/>
<path d="M9317 2634 c-4 -4 -7 -74 -7 -156 l0 -148 110 0 111 0 -3 153 -3 152
-101 3 c-55 1 -103 0 -107 -4z"/>
<path d="M9557 2634 c-4 -4 -7 -74 -7 -156 l0 -148 28 6 c48 11 112 54 142 95
31 44 54 126 48 174 l-3 30 -101 3 c-55 1 -103 0 -107 -4z"/>
<path d="M9950 2590 c0 -66 16 -128 41 -160 l19 -25 -3 115 -2 115 -27 3 c-27
3 -28 2 -28 -48z"/>
<path d="M10041 2631 c-8 -5 -11 -44 -9 -132 l3 -124 39 -19 c21 -10 70 -21
108 -24 l69 -5 -3 154 -3 154 -96 2 c-53 0 -101 -2 -108 -6z"/>
<path d="M10277 2634 c-4 -4 -7 -74 -7 -156 l0 -148 110 0 111 0 -3 153 -3
152 -101 3 c-55 1 -103 0 -107 -4z"/>
<path d="M10610 2485 l0 -155 60 0 61 0 -3 153 -3 152 -57 3 -58 3 0 -156z"/>
<path d="M10763 2634 c-10 -4 -13 -45 -13 -155 l0 -149 110 0 111 0 -3 153 -3
152 -95 2 c-52 1 -101 -1 -107 -3z"/>
<path d="M10997 2634 c-4 -4 -7 -74 -7 -156 l0 -148 88 0 c143 0 133 -12 130
159 l-3 146 -101 3 c-55 1 -103 0 -107 -4z"/>
<path d="M11235 2632 c-7 -7 -7 -282 0 -282 14 0 62 30 81 52 38 41 56 89 61
164 l6 74 -71 -1 c-39 -1 -74 -4 -77 -7z"/>
<path d="M4940 2476 c0 -97 4 -156 10 -156 6 0 10 56 10 149 0 89 -4 152 -10
156 -7 4 -10 -48 -10 -149z"/>
<path d="M7594 2480 c0 -85 2 -120 3 -77 2 42 2 112 0 155 -1 42 -3 7 -3 -78z"/>
<path d="M8341 2553 c1 -57 3 -70 9 -48 11 45 11 125 0 125 -6 0 -10 -32 -9
-77z"/>
<path d="M1040 2074 c-96 -25 -164 -87 -191 -173 -7 -20 -14 -94 -16 -166 -4
-117 -2 -136 18 -190 33 -88 118 -167 315 -293 89 -56 170 -115 180 -130 15
-21 19 -46 19 -114 0 -47 -3 -89 -7 -93 -4 -4 -22 -10 -40 -14 l-33 -7 0 -134
0 -135 80 1 c179 2 282 67 322 204 24 82 24 277 -1 355 -31 94 -131 188 -318
298 -80 48 -157 100 -171 117 -45 53 -49 200 -6 200 29 0 39 39 39 148 0 143
0 142 -74 141 -33 0 -86 -7 -116 -15z"/>
<path d="M1297 2069 c-10 -38 -8 -215 3 -243 6 -16 17 -26 29 -26 25 0 31 -26
31 -132 l0 -88 161 0 161 0 -4 148 c-3 127 -6 154 -26 197 -47 103 -130 152
-273 162 -74 5 -76 5 -82 -18z"/>
<path d="M3456 1785 c-38 -8 -73 -18 -78 -23 -5 -5 -7 -51 -6 -103 l3 -94 35
-3 c60 -4 79 -11 92 -35 10 -16 14 -130 18 -457 l5 -435 145 -3 c127 -2 146
-1 157 15 16 21 18 860 3 967 -13 87 -34 125 -89 155 -55 30 -183 37 -285 16z"/>
<path d="M5680 1794 c-73 -11 -151 -38 -160 -55 -12 -22 -13 -266 -2 -273 5
-3 30 1 56 9 25 8 80 17 120 21 l73 7 7 122 c4 68 4 135 0 149 -6 27 -23 30
-94 20z"/>
<path d="M6036 1790 c-63 -16 -103 -47 -128 -98 -23 -47 -23 -49 -23 -437 0
-214 4 -407 8 -428 8 -38 54 -99 89 -118 93 -50 350 -10 388 60 6 12 10 52 8
89 l-3 67 -63 0 c-108 0 -116 28 -111 383 5 250 2 244 107 252 l67 5 3 75 c4
109 1 117 -61 135 -64 19 -228 28 -281 15z"/>
<path d="M4207 1776 c-66 -18 -98 -43 -127 -102 l-25 -49 0 -425 c0 -419 0
-426 22 -466 31 -57 73 -90 133 -103 66 -14 464 -14 530 0 63 13 112 54 135
112 24 57 34 250 14 263 -16 10 -243 16 -277 8 -17 -5 -22 -14 -22 -38 0 -17
-5 -48 -10 -68 -9 -32 -16 -38 -46 -44 -46 -9 -132 0 -147 15 -9 9 -12 96 -12
325 0 331 2 346 47 346 17 0 18 8 16 118 l-3 117 -90 2 c-50 1 -111 -4 -138
-11z"/>
<path d="M4521 1772 c-12 -22 -15 -179 -5 -206 3 -9 14 -16 24 -16 32 0 43
-28 48 -125 l5 -94 -74 -3 -74 -3 -3 -94 c-2 -62 1 -98 9 -108 11 -12 45 -14
206 -11 256 4 237 -16 241 247 5 281 -13 348 -107 400 -35 19 -62 24 -151 29
-102 4 -108 4 -119 -16z"/>
<path d="M1902 1768 c-16 -16 -17 -932 -1 -1010 15 -67 65 -121 129 -138 96
-26 280 16 308 71 7 14 11 51 10 89 l-3 65 -50 5 c-81 8 -79 -4 -85 495 l-5
430 -145 3 c-105 2 -149 -1 -158 -10z"/>
<path d="M2433 1773 c-10 -4 -13 -127 -13 -568 0 -504 2 -563 16 -569 30 -12
279 -7 292 6 17 17 17 1109 0 1126 -12 12 -268 17 -295 5z"/>
<path d="M2992 1768 c-17 -17 -17 -1109 0 -1126 13 -13 262 -18 292 -6 14 6
16 65 16 569 0 504 -2 563 -16 569 -30 12 -279 7 -292 -6z"/>
<path d="M5133 1773 c-10 -4 -13 -127 -13 -568 0 -504 2 -563 16 -569 30 -12
279 -7 292 6 17 17 17 1109 0 1126 -12 12 -268 17 -295 5z"/>
<path d="M6457 1773 c-4 -3 -7 -248 -7 -543 0 -548 -4 -623 -38 -670 -32 -44
-68 -53 -212 -59 l-135 -6 0 -110 0 -110 220 0 c207 1 224 2 279 24 76 30 136
90 167 167 l24 59 3 619 c2 498 0 621 -10 627 -15 10 -282 12 -291 2z"/>
<path d="M6910 1764 c0 -20 270 -1074 279 -1092 4 -7 37 117 74 276 l67 289
-60 262 c-33 145 -63 267 -66 272 -3 5 -70 9 -150 9 -126 0 -144 -2 -144 -16z"/>
<path d="M7515 1770 c-6 -10 -61 -243 -195 -840 -50 -223 -99 -418 -109 -435
-21 -38 -45 -41 -132 -20 -39 10 -72 15 -75 12 -12 -11 -53 -168 -48 -181 6
-17 145 -55 227 -63 78 -7 134 8 189 50 73 55 97 120 204 542 53 209 128 501
165 650 38 148 69 275 69 282 0 16 -285 19 -295 3z"/>
<path d="M7970 1445 l0 -305 60 0 60 0 0 114 0 113 109 5 c90 5 117 10 152 29
117 65 119 262 4 326 -37 21 -53 23 -212 23 l-173 0 0 -305z m321 176 c14 -17
19 -36 17 -64 -5 -60 -36 -79 -135 -81 l-78 -1 -3 89 -3 88 91 -3 c83 -4 94
-6 111 -28z"/>
<path d="M9796 1742 c-3 -5 -4 -141 -3 -303 l2 -294 218 -3 217 -2 0 50 0 50
-155 0 -155 0 0 255 0 255 -59 0 c-33 0 -62 -4 -65 -8z"/>
<path d="M10900 1645 c0 -58 -2 -105 -5 -105 -2 0 -21 12 -42 26 -33 22 -46
25 -99 22 -73 -4 -120 -35 -150 -95 -22 -47 -30 -163 -14 -221 13 -50 67 -114
110 -132 50 -21 124 -8 170 29 l40 32 0 -31 c0 -29 1 -30 50 -30 l50 0 0 305
0 305 -55 0 -55 0 0 -105z m-41 -169 c51 -54 51 -177 1 -228 -50 -50 -124 -30
-151 39 -24 65 -3 178 38 202 33 19 88 13 112 -13z"/>
<path d="M9083 1707 c-52 -31 -53 -33 -53 -79 0 -44 -2 -48 -25 -48 -23 0 -25
-4 -25 -45 0 -41 2 -45 24 -45 l25 0 3 -156 3 -156 28 -24 c22 -19 39 -24 82
-24 78 0 85 5 85 57 0 44 -1 45 -27 40 -51 -10 -53 -5 -53 134 l0 129 40 0 40
0 0 45 0 45 -40 0 -40 0 0 80 c0 44 -3 80 -7 79 -5 0 -32 -15 -60 -32z"/>
<path d="M10380 1707 c-53 -32 -55 -35 -58 -80 -3 -42 -6 -47 -28 -47 -22 0
-24 -4 -24 -45 0 -41 2 -45 25 -45 l25 0 0 -127 c0 -156 10 -197 52 -219 30
-15 138 -17 153 -2 3 3 3 24 -1 48 -6 39 -9 42 -34 37 -44 -9 -50 6 -50 140
l0 123 40 0 40 0 0 45 0 45 -40 0 -39 0 -3 80 -3 80 -55 -33z"/>
<path d="M8503 1548 c7 -18 47 -117 88 -220 l74 -188 55 0 55 0 86 221 87 220
-61 -3 -60 -3 -49 -130 c-26 -71 -51 -137 -54 -145 -3 -8 -25 38 -49 105 -69
194 -55 175 -125 175 l-60 0 13 -32z"/>
<path d="M9310 1195 l0 -55 60 0 60 0 0 55 0 55 -60 0 -60 0 0 -55z"/>
<path d="M11130 1195 l0 -55 60 0 60 0 0 55 0 55 -60 0 -60 0 0 -55z"/>
<path d="M793 1114 c-3 -9 -3 -71 0 -137 6 -152 28 -217 92 -276 54 -50 130
-74 240 -75 l80 -1 0 135 0 135 -30 3 c-16 2 -34 8 -40 13 -5 6 -12 56 -15
112 l-5 102 -158 3 c-137 2 -158 0 -164 -14z"/>
</g>
</svg>
